<svg width="20" height="20" viewBox="0 0 20 20" fill="none" xmlns="http://www.w3.org/2000/svg">
    <g clip-path="url(#clip0_16:152)">
        <path d="M19.3 0C19.4857 0 19.6637 0.0737498 19.795 0.205025C19.9263 0.336301 20 0.514348 20 0.7V8.978C20 12.677 17 15.676 13.301 15.676L2.30503 15.675L5.43603 18.805C5.50103 18.87 5.5526 18.9472 5.58778 19.0321C5.62296 19.117 5.64106 19.2081 5.64106 19.3C5.64106 19.3919 5.62296 19.483 5.58778 19.5679C5.5526 19.6528 5.50103 19.73 5.43603 19.795C5.37102 19.86 5.29385 19.9116 5.20892 19.9467C5.12399 19.9819 5.03296 20 4.94103 20C4.8491 20 4.75807 19.9819 4.67314 19.9467C4.5882 19.9116 4.51103 19.86 4.44603 19.795L0.206027 15.554C0.141019 15.489 0.0894505 15.4118 0.0542677 15.3269C0.019085 15.242 0.000976562 15.1509 0.000976562 15.059C0.000976563 14.9671 0.019085 14.876 0.0542677 14.7911C0.0894505 14.7062 0.141019 14.629 0.206027 14.564L4.44703 10.323C4.51203 10.258 4.5892 10.2064 4.67414 10.1713C4.75907 10.1361 4.8501 10.118 4.94203 10.118C5.03396 10.118 5.12499 10.1361 5.20992 10.1713C5.29485 10.2064 5.37202 10.258 5.43703 10.323C5.50203 10.388 5.5536 10.4652 5.58878 10.5501C5.62396 10.635 5.64206 10.7261 5.64206 10.818C5.64206 10.9099 5.62396 11.001 5.58878 11.0859C5.5536 11.1708 5.50203 11.248 5.43703 11.313L2.47203 14.276H13.302C14.7071 14.2757 16.0545 13.7175 17.048 12.724C18.0415 11.7304 18.5998 10.383 18.6 8.978V0.7C18.6 0.514348 18.6738 0.336301 18.8051 0.205025C18.9363 0.0737498 19.1144 0 19.3 0Z" fill="#28615B"/>
    </g>
    <defs>
        <clipPath id="clip0_16:152">
            <rect width="20" height="20" fill="white"/>
        </clipPath>
    </defs>
</svg>
