<svg width="36" height="36" viewBox="0 0 36 36" fill="none" xmlns="http://www.w3.org/2000/svg">
    <path d="M30.496 21.4059L35.6007 19.4822L30.9347 16.65L34.9988 13.0106L29.6269 12.0572L32.1047 7.19437L26.7497 8.24625L27.3038 2.81812L22.6941 5.7375L21.2485 0.478124L18 4.86L14.7516 0.475311L13.3088 5.73469L8.69629 2.82094L9.25035 8.24906L3.89535 7.19719L6.37035 12.06L0.998477 13.0134L5.06535 16.65L0.399414 19.4822L5.5041 21.4059L2.17973 25.7287L7.63316 25.6781L6.09191 30.9122L11.1629 28.8956L11.6157 34.3322L15.6122 30.6197L18 35.5247L20.3879 30.6197L24.3872 34.3322L24.84 28.8956L29.9082 30.9122L28.3669 25.6781L33.8232 25.7287L30.496 21.4059V21.4059ZM18.0029 29.9981C11.3766 29.9981 6.00473 24.6262 6.00473 18C6.00473 11.3737 11.3766 6.00187 18.0029 6.00187C24.6263 6.00187 29.9982 11.3737 29.9982 18C29.9982 24.6262 24.6263 29.9953 18.0029 29.9981V29.9981Z" fill="#FCC21B"/>
    <path d="M18.0001 35.8172C17.8876 35.8172 17.7864 35.7525 17.7358 35.6513L15.5223 31.1006L11.8154 34.5431C11.7339 34.6219 11.6158 34.6444 11.5117 34.6022C11.4048 34.5628 11.3345 34.4644 11.3233 34.3519L10.9042 29.3091L6.2017 31.1794C6.09763 31.2216 5.97951 31.1991 5.89513 31.1231C5.81076 31.0472 5.77982 30.9319 5.81076 30.8222L7.23951 25.9706L2.18263 26.0241H2.17982C2.06732 26.0241 1.96607 25.9622 1.91545 25.8609C1.86482 25.7597 1.87607 25.6388 1.94638 25.5516L5.02888 21.5409L0.298259 19.755C0.194196 19.7156 0.118259 19.62 0.109821 19.5075C0.0985714 19.395 0.154821 19.2881 0.250446 19.2291L4.57607 16.605L0.804509 13.23C0.722946 13.1541 0.686384 13.0388 0.717321 12.9291C0.748259 12.8194 0.838259 12.7406 0.947946 12.7209L5.92888 11.8378L3.63388 7.32938C3.58045 7.22813 3.59451 7.11 3.66201 7.02C3.72951 6.93 3.84482 6.88501 3.9517 6.91032L8.91857 7.88626L8.40388 2.85188C8.39263 2.73938 8.44888 2.6325 8.5417 2.57344C8.64013 2.51438 8.76107 2.51438 8.85388 2.57344L13.1317 5.27626L14.4704 0.39938C14.4986 0.292505 14.5914 0.20813 14.7011 0.188443C14.8164 0.165943 14.9233 0.210943 14.9908 0.300943L18.0001 4.36501L21.0123 0.300943C21.0798 0.210943 21.1951 0.165943 21.302 0.188443C21.4117 0.20813 21.5017 0.289692 21.5326 0.39938L22.8714 5.27626L27.1492 2.57344C27.2448 2.51157 27.3658 2.51438 27.4614 2.57344C27.557 2.6325 27.6104 2.74219 27.5992 2.85188L27.0845 7.88626L32.0486 6.91032C32.1583 6.88501 32.2708 6.93282 32.3383 7.02C32.4058 7.11 32.417 7.23094 32.3664 7.32938L30.0714 11.8378L35.0523 12.7209C35.162 12.7406 35.252 12.8222 35.2858 12.9291C35.3167 13.0359 35.2829 13.1541 35.1986 13.23L31.427 16.605L35.7554 19.2291C35.8511 19.2881 35.9073 19.395 35.8961 19.5075C35.8876 19.62 35.8145 19.7156 35.7076 19.755L30.9742 21.5381L34.0595 25.5488C34.127 25.6388 34.1411 25.7597 34.0876 25.8581C34.0398 25.9566 33.9358 26.0213 33.8261 26.0213H33.8233L28.7636 25.9734L30.1698 30.7434C30.2008 30.7913 30.2204 30.8475 30.2204 30.9094C30.2204 31.0725 30.0883 31.2047 29.9279 31.2047H29.9139C29.8773 31.2047 29.8408 31.1963 29.8042 31.185L25.1045 29.3147L24.6854 34.3575C24.677 34.47 24.6039 34.5656 24.497 34.6078C24.3929 34.65 24.2748 34.6275 24.1933 34.5488L20.4836 31.1063L18.2701 35.6569C18.2139 35.7525 18.1126 35.8172 18.0001 35.8172V35.8172ZM15.6123 30.3244C15.632 30.3244 15.6489 30.3272 15.6658 30.33C15.7586 30.3469 15.8373 30.4059 15.8767 30.4903L18.0001 34.8525L20.1236 30.4903C20.1629 30.4059 20.2417 30.3469 20.3345 30.33C20.4217 30.3131 20.5201 30.3413 20.5876 30.4031L24.1454 33.705L24.5476 28.8703C24.5515 28.8246 24.5661 28.7803 24.5902 28.7412C24.6143 28.7021 24.6472 28.6692 24.6863 28.6451C24.7254 28.6211 24.7696 28.6065 24.8154 28.6026C24.8612 28.5988 24.9072 28.6057 24.9498 28.6228L29.4583 30.4172L28.0858 25.7625C28.0604 25.6725 28.0773 25.5769 28.1336 25.5009C28.187 25.4278 28.2742 25.3856 28.367 25.3856H28.3698L33.2214 25.4306L30.2626 21.5831C30.2036 21.51 30.1867 21.4144 30.212 21.3244C30.2373 21.2344 30.3048 21.1613 30.392 21.1303L34.9314 19.4203L30.7829 16.9031C30.7042 16.8553 30.6508 16.7709 30.6423 16.6781C30.6367 16.5853 30.6704 16.4953 30.7408 16.4306L34.3548 13.1963L29.5792 12.3469C29.4864 12.33 29.4104 12.2709 29.3683 12.1894C29.3261 12.105 29.3261 12.0066 29.3683 11.925L31.5733 7.59938L26.8117 8.53594C26.7217 8.55563 26.6261 8.52751 26.5586 8.46563C26.4883 8.40376 26.4545 8.31094 26.4629 8.21813L26.9551 3.39188L22.8545 5.98501C22.7729 6.03282 22.6745 6.04407 22.5901 6.01032C22.5473 5.99356 22.509 5.96704 22.4782 5.93286C22.4475 5.89868 22.4251 5.85779 22.4129 5.81344L21.1248 1.13625L18.2364 5.03438C18.1239 5.18344 17.8764 5.18344 17.7639 5.03438L14.8754 1.13625L13.5929 5.81344C13.5805 5.8577 13.558 5.89845 13.5271 5.93249C13.4963 5.96653 13.4579 5.99292 13.415 6.00956C13.3722 6.02621 13.3261 6.03265 13.2803 6.02839C13.2346 6.02413 13.1904 6.00928 13.1514 5.98501L9.05076 3.39188L9.54295 8.21813C9.55138 8.31094 9.51763 8.40094 9.44732 8.46563C9.37982 8.52751 9.28138 8.55563 9.1942 8.53594L4.43263 7.59938L6.63201 11.925C6.65249 11.9659 6.66315 12.0111 6.66315 12.0568C6.66316 12.1026 6.6525 12.1478 6.63204 12.1887C6.61157 12.2296 6.58185 12.2652 6.54523 12.2927C6.50861 12.3201 6.4661 12.3387 6.42107 12.3469L1.64545 13.1963L5.25951 16.4306C5.29355 16.4616 5.31991 16.5001 5.3365 16.5431C5.35309 16.5861 5.35945 16.6323 5.35509 16.6781C5.35072 16.724 5.33575 16.7682 5.31135 16.8072C5.28695 16.8463 5.25379 16.8791 5.21451 16.9031L1.06888 19.4203L5.60826 21.1303C5.69545 21.1641 5.76295 21.2344 5.78826 21.3244C5.81357 21.4144 5.79388 21.51 5.74045 21.5831L2.7817 25.4306L7.63045 25.3856H7.63326C7.72607 25.3856 7.81326 25.4278 7.8667 25.5009C7.92295 25.5769 7.93982 25.6725 7.91451 25.7625L6.54482 30.4144L11.0533 28.62C11.1404 28.5863 11.2389 28.5947 11.3176 28.6425C11.3992 28.6903 11.447 28.7747 11.4554 28.8675L11.8576 33.7022L15.4126 30.4031C15.4689 30.3525 15.5392 30.3244 15.6123 30.3244ZM18.0029 30.2906C11.2248 30.2906 5.71232 24.7753 5.70951 18C5.70951 11.2219 11.2248 5.70938 18.0029 5.70938C24.7783 5.70938 30.2936 11.2219 30.2936 18C30.2936 24.7753 24.7783 30.2906 18.0029 30.2906ZM18.0029 6.29719C11.5511 6.29719 6.30013 11.5481 6.29732 18C6.29732 24.4519 11.5483 29.7028 18.0029 29.7028C24.4548 29.7028 29.7029 24.4519 29.7029 18C29.7029 11.5481 24.4548 6.29719 18.0029 6.29719V6.29719Z" fill="#FCC21B"/>
    <path d="M17.9999 28.5019C23.7999 28.5019 28.5018 23.8 28.5018 18C28.5018 12.2 23.7999 7.49811 17.9999 7.49811C12.1999 7.49811 7.49805 12.2 7.49805 18C7.49805 23.8 12.1999 28.5019 17.9999 28.5019Z" fill="#FCC21B"/>
    <path d="M18.2587 24.134C17.6118 24.1397 16.9537 23.9991 16.4193 23.7319C16.1521 23.5997 15.8765 23.4197 15.6627 23.2116C15.449 23.0006 15.2408 22.6294 15.494 22.3734C15.6993 22.1681 15.9974 22.3734 16.1943 22.4803C16.7512 22.7841 17.3868 23.0062 18.0308 23.0344C18.7452 23.0653 19.3246 22.8487 19.9405 22.5253C20.1149 22.4325 20.4637 22.2075 20.669 22.3312C21.1808 22.6434 20.5733 23.2031 20.309 23.4253C19.7408 23.9062 19.0096 24.1256 18.2587 24.134V24.134Z" fill="#2F2F2F"/>
    <path d="M18.0252 21.5184C19.1952 21.5184 19.8365 20.5481 19.4005 20.3316C18.9618 20.115 18.9196 20.8997 18.0252 20.8997C17.1308 20.8997 17.0886 20.115 16.6499 20.3316C16.214 20.5481 16.858 21.5184 18.0252 21.5184Z" fill="#2F2F2F"/>
    <path d="M14.4702 17.9529C14.4702 18.8304 13.8205 19.5448 13.0246 19.5448C12.2315 19.5448 11.5818 18.8304 11.5818 17.9529C11.5818 17.0726 12.2287 16.3611 13.0246 16.3611C13.8205 16.3582 14.4702 17.0726 14.4702 17.9529Z" fill="#2F2F2F"/>
    <path d="M22.9753 19.5412C23.7721 19.5412 24.4181 18.8285 24.4181 17.9494C24.4181 17.0702 23.7721 16.3575 22.9753 16.3575C22.1784 16.3575 21.5325 17.0702 21.5325 17.9494C21.5325 18.8285 22.1784 19.5412 22.9753 19.5412Z" fill="#2F2F2F"/>
</svg>
